<?xml version="1.0" standalone="no"?>
<!DOCTYPE svg PUBLIC "-//W3C//DTD SVG 20010904//EN"
 "http://www.w3.org/TR/2001/REC-SVG-20010904/DTD/svg10.dtd">
<svg version="1.0" xmlns="http://www.w3.org/2000/svg"
 width="423.000000pt" height="405.000000pt" viewBox="0 0 423.000000 405.000000"
 preserveAspectRatio="xMidYMid meet">

<g transform="translate(0.000000,405.000000) scale(0.100000,-0.100000)"
fill="#000000" stroke="none">
<path d="M2250 3341 c0 -5 5 -13 10 -16 6 -3 10 -2 10 4 0 5 -4 13 -10 16 -5
3 -10 2 -10 -4z"/>
<path d="M2190 3330 c-9 -6 -10 -10 -3 -10 6 0 15 5 18 10 8 12 4 12 -15 0z"/>
<path d="M1441 3221 c-7 -5 -16 -30 -19 -56 -5 -44 -4 -47 14 -37 25 13 47 54
42 77 -4 22 -18 28 -37 16z m21 -18 c-6 -2 -9 -10 -6 -15 4 -7 2 -8 -5 -4 -13
9 -5 26 12 25 9 0 8 -2 -1 -6z"/>
<path d="M1510 3208 c0 -9 7 -35 15 -58 8 -24 18 -57 21 -74 3 -17 7 -32 10
-35 7 -8 4 37 -5 61 -17 46 -22 80 -11 73 16 -10 12 0 -10 25 -15 17 -20 19
-20 8z"/>
<path d="M1648 3213 c7 -3 16 -2 19 1 4 3 -2 6 -13 5 -11 0 -14 -3 -6 -6z"/>
<path d="M1560 3178 c0 -24 4 -28 27 -28 22 0 25 2 13 13 -8 6 -20 19 -27 27
-10 13 -12 11 -13 -12z"/>
<path d="M1373 3162 c-7 -4 -9 -13 -4 -21 6 -9 10 -7 14 8 3 12 4 21 4 21 -1
0 -7 -4 -14 -8z"/>
<path d="M1681 3157 c2 -32 14 -43 35 -32 22 11 22 11 -7 27 -20 12 -29 13
-28 5z"/>
<path d="M1511 3124 c0 -11 3 -14 6 -6 3 7 2 16 -1 19 -3 4 -6 -2 -5 -13z"/>
<path d="M1808 3128 c4 -4 21 -3 37 1 30 9 30 9 -7 8 -20 -1 -34 -5 -30 -9z"/>
<path d="M1955 3130 c3 -5 10 -10 16 -10 5 0 9 5 9 10 0 6 -7 10 -16 10 -8 0
-12 -4 -9 -10z"/>
<path d="M2225 3110 c-17 -32 -10 -41 10 -13 11 15 15 16 31 3 16 -14 16 -13
6 7 -19 35 -30 36 -47 3z"/>
<path d="M1766 3107 c3 -10 9 -15 12 -12 3 3 0 11 -7 18 -10 9 -11 8 -5 -6z"/>
<path d="M1690 3100 c-7 -19 -7 -41 1 -46 14 -8 11 -62 -3 -67 -7 -2 -10 -8
-6 -12 13 -14 28 7 27 38 -1 32 -15 96 -19 87z"/>
<path d="M1850 3023 c36 -37 71 -71 78 -76 6 -4 12 -14 12 -22 0 -8 5 -17 12
-21 8 -5 9 -2 5 10 -5 14 -3 15 13 6 50 -27 53 -2 5 48 -19 20 -35 32 -35 26
0 -6 7 -17 16 -24 8 -8 19 -21 25 -31 8 -16 7 -17 -14 -6 -20 10 -47 37 -138
135 -12 12 -26 22 -32 22 -6 0 18 -30 53 -67z"/>
<path d="M1882 3061 c8 -14 25 -31 39 -40 l24 -15 -25 24 c-14 14 -31 31 -39
40 -10 11 -10 9 1 -9z"/>
<path d="M2160 3062 c0 -9 71 -34 78 -27 4 3 -63 35 -74 35 -2 0 -4 -4 -4 -8z"/>
<path d="M1360 3026 c0 -17 45 -76 62 -82 10 -3 26 -1 36 5 14 7 21 5 30 -10
7 -10 18 -19 25 -19 6 0 4 5 -5 11 -10 5 -18 14 -18 19 0 5 -4 20 -10 34 -9
25 -10 25 -40 8 -31 -17 -31 -17 -56 13 -13 17 -24 26 -24 21z"/>
<path d="M1302 3006 c-36 -21 -38 -27 -4 -15 18 6 35 15 38 20 7 12 -6 10 -34
-5z"/>
<path d="M2511 2964 c0 -11 3 -14 6 -6 3 7 2 16 -1 19 -3 4 -6 -2 -5 -13z"/>
<path d="M1224 2954 c-18 -14 -18 -15 4 -4 12 6 22 13 22 15 0 8 -5 6 -26 -11z"/>
<path d="M1638 2963 c6 -2 18 -2 25 0 6 3 1 5 -13 5 -14 0 -19 -2 -12 -5z"/>
<path d="M1600 2943 c-40 -7 -44 -19 -5 -15 19 2 35 8 35 13 0 5 -1 8 -2 8 -2
-1 -14 -4 -28 -6z"/>
<path d="M2520 2910 c0 -11 4 -20 9 -20 5 0 7 9 4 20 -3 11 -7 20 -9 20 -2 0
-4 -9 -4 -20z"/>
<path d="M2541 2864 c0 -11 3 -14 6 -6 3 7 2 16 -1 19 -3 4 -6 -2 -5 -13z"/>
<path d="M1035 2835 c50 -18 50 -18 35 0 -7 8 -27 15 -44 15 -31 -1 -31 -1 9
-15z"/>
<path d="M2539 2813 c42 -57 51 -66 55 -62 3 3 -8 20 -24 39 -17 19 -30 38
-30 43 0 4 -5 7 -11 7 -6 0 -1 -12 10 -27z"/>
<path d="M798 2823 c7 -3 16 -2 19 1 4 3 -2 6 -13 5 -11 0 -14 -3 -6 -6z"/>
<path d="M705 2800 c-19 -8 -19 -9 2 -9 12 -1 25 4 28 9 7 12 -2 12 -30 0z"/>
<path d="M635 2770 c-16 -11 -24 -20 -17 -20 8 0 25 9 39 20 33 26 17 26 -22
0z"/>
<path d="M529 2699 c-8 -15 -8 -24 0 -32 16 -16 14 -25 -6 -30 -11 -3 -7 -5
10 -6 28 -1 38 21 16 35 -6 3 -9 17 -6 30 5 30 1 30 -14 3z"/>
<path d="M2636 2680 c15 -22 29 -38 31 -36 5 5 -46 76 -53 76 -3 0 8 -18 22
-40z"/>
<path d="M938 2605 c-12 -28 -19 -30 -35 -14 -14 14 -125 7 -167 -10 -39 -16
-26 -26 15 -12 37 13 135 13 164 1 17 -7 17 -9 3 -9 -22 -1 -24 -21 -3 -21 23
0 29 4 31 20 1 8 5 27 9 43 9 34 -2 35 -17 2z"/>
<path d="M516 2539 c11 -98 24 -130 17 -44 -3 44 -9 84 -14 89 -5 5 -6 -14 -3
-45z"/>
<path d="M752 2540 c0 -14 2 -19 5 -12 2 6 2 18 0 25 -3 6 -5 1 -5 -13z"/>
<path d="M2791 2514 c0 -11 3 -14 6 -6 3 7 2 16 -1 19 -3 4 -6 -2 -5 -13z"/>
<path d="M2320 2495 c-11 -13 -10 -14 4 -9 9 3 16 10 16 15 0 13 -6 11 -20 -6z"/>
<path d="M884 2486 c-34 -15 -50 -33 -39 -44 3 -4 11 1 16 11 6 9 16 17 23 17
8 0 19 7 26 15 15 18 14 18 -26 1z"/>
<path d="M2331 2464 c-11 -15 -19 -30 -16 -34 2 -4 37 1 77 11 40 10 83 19 96
19 13 0 22 6 22 15 0 12 -15 15 -79 15 -74 0 -81 -2 -100 -26z m74 6 c-3 -5
-14 -10 -23 -10 -15 0 -15 2 -2 10 20 13 33 13 25 0z"/>
<path d="M2780 2481 c0 -5 5 -13 10 -16 6 -3 10 -2 10 4 0 5 -4 13 -10 16 -5
3 -10 2 -10 -4z"/>
<path d="M840 2421 c0 -5 6 -11 13 -14 6 -2 12 -15 12 -28 0 -13 3 -25 8 -26
4 -2 7 -1 7 2 0 3 0 15 0 28 0 12 -9 28 -20 35 -11 7 -20 8 -20 3z"/>
<path d="M546 2380 c8 -43 32 -110 33 -91 1 15 -15 72 -30 106 -6 14 -7 9 -3
-15z"/>
<path d="M2701 2406 c2 -2 18 -6 34 -10 22 -5 26 -4 15 4 -14 9 -59 15 -49 6z"/>
<path d="M2832 2336 c0 -42 3 -76 8 -76 8 0 4 139 -4 147 -2 3 -4 -30 -4 -71z"/>
<path d="M2165 2372 c-16 -2 -36 -9 -44 -15 -11 -9 -15 -9 -19 1 -3 10 -8 9
-23 -4 -10 -9 -16 -21 -13 -25 10 -16 88 -9 113 10 30 23 24 37 -14 33z"/>
<path d="M2756 2364 c-3 -9 -2 -23 2 -31 7 -11 9 -6 10 16 1 34 -3 39 -12 15z"/>
<path d="M2550 2360 c0 -5 5 -10 11 -10 5 0 7 5 4 10 -3 6 -8 10 -11 10 -2 0
-4 -4 -4 -10z"/>
<path d="M1730 2310 c20 -13 33 -13 25 0 -3 6 -14 10 -23 10 -15 0 -15 -2 -2
-10z"/>
<path d="M2582 2313 c-6 -2 -10 -8 -7 -13 2 -4 -16 -3 -41 2 -53 11 -60 8 -44
-22 9 -17 14 -19 26 -9 12 10 17 10 27 0 9 -10 8 -11 -4 -6 -10 4 -20 1 -24
-5 -8 -13 12 -40 28 -36 7 1 9 1 4 -1 -4 -3 -4 -10 -1 -15 5 -7 2 -8 -5 -3
-10 5 -12 -3 -10 -31 1 -22 7 -45 12 -51 6 -8 6 -13 -1 -13 -6 0 -15 -23 -21
-50 -6 -28 -18 -64 -26 -80 -20 -38 -19 -46 3 -29 15 13 16 12 3 -3 -7 -10
-17 -16 -21 -13 -4 3 -18 -11 -31 -30 -13 -19 -29 -35 -36 -35 -15 0 -35 -35
-25 -45 4 -3 3 -5 -3 -4 -16 5 -117 -35 -122 -48 -3 -7 -10 -10 -16 -6 -7 4
-8 0 -3 -13 5 -14 4 -16 -4 -7 -8 7 -22 8 -43 2 -18 -5 -57 -9 -87 -9 -31 0
-62 -6 -69 -12 -11 -10 -14 -10 -18 0 -6 15 -53 16 -53 1 0 -6 -6 -4 -14 4
-17 17 -107 52 -114 45 -2 -2 -8 5 -13 15 -6 9 -15 15 -20 11 -5 -3 -8 -2 -7
3 1 4 -5 28 -14 53 -18 48 -27 101 -28 164 0 37 -1 38 -14 21 -8 -11 -12 -23
-9 -28 2 -4 -1 -6 -9 -5 -8 2 -12 -5 -11 -17 1 -11 0 -15 -3 -8 -4 8 -13 9
-30 3 -19 -8 -24 -6 -24 6 0 12 -7 10 -31 -10 -24 -21 -34 -24 -45 -15 -8 6
-15 19 -15 28 -1 9 -5 -4 -9 -29 -10 -58 -1 -147 18 -185 8 -16 28 -45 43 -63
33 -37 35 -47 14 -69 -13 -12 -29 -13 -96 -6 -87 10 -194 -7 -290 -45 -15 -6
-36 -8 -48 -5 -12 3 -21 1 -21 -4 0 -5 -34 -10 -75 -12 -48 -1 -75 1 -75 8 0
11 -62 43 -107 56 -13 3 -23 13 -23 21 0 8 -9 14 -20 14 -21 0 -27 15 -10 25
16 10 12 52 -6 59 -9 3 -20 4 -25 0 -21 -13 -26 10 -13 68 7 35 13 91 14 125
0 39 7 79 21 109 18 43 43 183 34 192 -2 2 -11 -14 -21 -35 -9 -21 -20 -42
-22 -47 -3 -5 0 -6 6 -2 15 9 15 1 1 -66 -6 -29 -17 -58 -24 -63 -7 -6 -14
-19 -16 -30 -3 -14 -16 -23 -44 -29 -68 -14 -72 -20 -17 -24 l52 -3 0 -44 c0
-43 0 -44 -37 -47 -33 -3 -38 -6 -38 -28 0 -18 -6 -26 -22 -28 -12 -2 -37 -18
-55 -35 -18 -17 -42 -36 -53 -42 -11 -6 -21 -19 -23 -30 -6 -30 -42 -65 -60
-58 -10 4 -13 2 -8 -5 4 -6 0 -25 -9 -41 -22 -43 -19 -52 5 -13 11 18 28 32
39 32 10 0 24 7 31 15 20 24 35 18 56 -20 10 -19 22 -35 26 -35 4 0 25 -16 45
-35 20 -19 43 -35 50 -35 7 0 41 -15 76 -34 35 -18 86 -39 114 -45 l50 -12 -5
-49 c-6 -68 5 -134 28 -161 11 -12 20 -25 20 -29 0 -13 49 -33 111 -44 64 -11
86 -29 49 -41 -27 -9 -22 -39 8 -43 24 -4 28 -12 11 -29 -7 -7 -2 -17 18 -33
24 -19 37 -21 84 -17 47 4 57 2 67 -14 17 -27 15 -34 -13 -47 -33 -15 -33 -42
0 -42 14 0 28 -7 32 -16 12 -32 50 -61 67 -52 26 14 50 1 94 -50 32 -39 38
-52 30 -66 -8 -13 -7 -21 3 -27 16 -10 29 -3 29 17 0 25 31 15 67 -21 40 -40
40 -40 45 -18 3 15 4 15 20 -1 10 -9 23 -35 30 -57 15 -52 73 -111 113 -116
17 -2 32 -8 33 -13 2 -6 15 -10 28 -10 17 0 27 -8 34 -24 5 -13 12 -26 17 -29
4 -3 67 -6 138 -8 138 -2 189 -15 198 -48 2 -10 19 -26 37 -35 44 -21 61 -20
31 3 l-24 18 26 5 c32 6 37 2 37 -29 0 -26 15 -31 24 -8 8 22 49 18 64 -5 17
-28 37 -27 197 12 58 14 95 65 95 131 0 38 6 57 28 86 33 43 46 71 63 134 l14
48 75 23 c41 13 95 27 120 31 40 6 49 4 74 -20 16 -15 54 -32 88 -41 68 -18
92 -12 29 7 -23 7 -41 15 -41 18 0 3 35 5 77 3 59 -2 86 2 113 15 41 21 82 87
76 122 -2 14 3 36 12 49 9 14 17 32 19 41 1 8 7 25 12 38 23 48 30 69 35 103
4 19 11 42 16 50 9 13 11 13 20 0 13 -20 13 -12 -5 65 -9 36 -15 71 -13 78 1
7 -1 28 -5 49 -6 28 -14 39 -38 47 -16 6 -43 20 -59 31 -17 12 -30 17 -30 11
0 -5 5 -13 10 -16 22 -14 7 -25 -33 -25 -30 0 -44 -4 -44 -14 0 -10 6 -11 27
-3 16 6 35 7 46 2 17 -8 17 -9 -5 -13 -14 -2 -35 -11 -49 -20 -18 -11 -26 -12
-31 -4 -8 14 -71 -3 -71 -19 0 -13 7 -11 35 7 28 18 33 13 9 -10 -8 -9 -25
-16 -38 -16 -17 0 -29 -13 -50 -55 -22 -45 -29 -75 -34 -153 -10 -143 -2 -199
31 -228 15 -12 23 -25 18 -28 -4 -3 -11 -3 -15 1 -3 3 -20 8 -38 10 -18 2 -42
10 -53 17 -14 9 -27 11 -36 5 -11 -7 -11 -9 -1 -9 7 0 11 -4 8 -9 -7 -11 -155
-5 -205 9 -24 6 -42 20 -53 40 -16 28 -16 30 0 27 9 -1 23 -6 31 -11 7 -5 38
-10 68 -11 38 -2 59 -9 70 -22 8 -10 12 -12 8 -5 -5 9 5 12 41 10 40 -3 49 0
52 15 2 10 -6 27 -18 37 -11 10 -22 28 -23 39 -1 12 -4 21 -8 21 -4 0 -10 8
-12 17 -3 12 -5 9 -6 -8 -3 -68 -35 -108 -74 -93 -15 5 -15 9 -2 42 20 47 11
53 -11 7 l-17 -37 -51 7 c-28 3 -70 16 -93 27 -41 20 -43 24 -43 66 0 31 -4
42 -12 39 -7 -2 -12 -13 -10 -23 2 -16 1 -17 -7 -4 -6 8 -11 10 -11 5 0 -6 5
-16 12 -23 9 -9 6 -12 -14 -10 -29 2 -28 6 16 56 11 12 15 22 10 22 -5 0 -4 4
1 8 6 4 19 20 28 35 l18 28 -23 -12 c-12 -7 -31 -23 -41 -36 -10 -13 -28 -28
-40 -34 l-22 -11 22 21 c12 12 27 40 33 64 6 23 13 50 16 60 3 9 3 17 0 17 -2
0 -12 -24 -22 -52 -9 -29 -24 -64 -34 -78 -9 -14 -20 -33 -23 -43 -6 -16 -9
-16 -36 -3 -27 14 -29 14 -34 -3 -3 -13 6 -23 30 -37 35 -18 59 -57 47 -76 -4
-7 4 -8 24 -3 17 3 33 2 36 -4 8 -12 -24 -31 -51 -31 -10 0 -30 -7 -45 -14
-34 -18 -37 -2 -5 25 12 10 16 18 10 19 -7 0 -13 -4 -13 -9 0 -5 -13 -14 -30
-21 -30 -12 -44 -38 -15 -26 17 6 20 -9 4 -20 -6 -3 -15 -1 -19 6 -10 16 -50
-8 -50 -32 0 -9 -11 -30 -25 -46 -23 -27 -45 -80 -77 -184 -14 -45 -14 -49 7
-86 12 -21 21 -46 19 -55 -1 -9 5 -21 14 -27 14 -8 12 -9 -10 -10 -16 0 -28 5
-28 10 0 6 -8 10 -17 10 -19 1 -60 57 -65 88 -2 9 -7 20 -11 23 -5 4 -13 22
-17 40 -7 32 -8 30 -9 -18 -1 -28 3 -54 8 -57 5 -3 11 -15 14 -26 3 -11 2 -18
-3 -15 -4 3 -11 -3 -14 -12 -7 -17 9 -33 32 -33 6 0 12 -6 12 -12 0 -9 4 -8
10 2 8 13 10 12 10 -4 0 -16 5 -17 33 -12 l32 6 -33 -20 c-30 -19 -82 -20 -82
-1 0 3 -17 7 -38 9 -20 1 -46 4 -57 7 -11 2 -28 4 -37 4 -10 1 -26 10 -36 21
-10 11 -37 30 -60 42 -61 34 -147 113 -187 174 -19 29 -40 56 -45 59 -6 3 -10
16 -10 28 0 13 -6 31 -14 42 -7 11 -19 37 -25 57 -19 59 7 109 29 56 7 -19 9
-15 9 23 1 51 29 98 50 85 7 -5 10 -13 8 -20 -2 -6 -1 -31 3 -56 7 -40 8 -37
9 33 0 42 -1 77 -4 77 -14 0 -65 -45 -65 -58 0 -7 -16 -28 -35 -46 -20 -20
-35 -43 -35 -57 -1 -14 -10 2 -24 41 -13 36 -34 89 -45 119 -13 30 -18 57 -13
60 5 3 12 20 15 36 12 64 19 91 27 110 4 11 13 33 19 48 6 15 11 39 11 53 0
13 4 32 9 42 5 9 17 37 27 62 10 25 25 56 33 69 14 21 16 22 27 6 7 -9 10 -23
7 -31 -7 -20 14 -17 27 4 8 12 13 13 16 5 10 -24 59 -14 90 18 18 19 22 28 11
24 -9 -4 -17 -11 -17 -16 0 -16 -44 -28 -57 -17 -20 16 -15 28 12 28 14 0 25
5 25 11 0 5 4 8 8 5 5 -3 9 1 9 9 0 19 -11 19 -27 0 -14 -17 -50 -21 -50 -6 0
6 8 16 18 23 10 7 22 20 27 28 4 8 -6 2 -23 -14 -28 -26 -35 -28 -57 -18 -32
15 -32 24 4 45 40 23 68 21 96 -8 28 -27 34 -22 9 6 -15 17 -13 20 37 43 140
64 229 97 284 106 54 9 63 8 85 -10 14 -11 41 -28 60 -36 19 -9 43 -20 52 -25
25 -13 47 -11 63 5 12 12 12 15 0 20 -8 3 -14 0 -12 -7 1 -6 -8 -13 -20 -15
-15 -2 -23 2 -23 12 0 8 -8 14 -18 13 -11 0 -33 10 -50 23 -32 26 -40 40 -22
40 6 0 10 4 10 9 0 5 -9 7 -20 4 -23 -6 -50 12 -50 33 0 8 10 14 23 14 13 0
28 5 33 10 8 8 15 6 24 -5 7 -8 21 -15 31 -15 35 0 52 -64 19 -75 -11 -3 -24
-3 -30 0 -5 3 -10 1 -10 -4 0 -15 43 -14 58 1 8 8 15 8 27 -2 10 -8 15 -9 15
-1 0 18 17 13 106 -29 47 -22 84 -46 84 -54 0 -8 16 -29 36 -48 20 -18 40 -43
45 -56 5 -12 20 -27 34 -32 15 -6 23 -14 20 -20 -4 -6 6 -10 22 -10 27 -1 27
-1 9 -15 -26 -19 -13 -19 24 0 17 9 41 13 55 10 14 -3 36 -7 50 -10 14 -3 25
-1 25 4 0 10 -44 20 -114 27 -27 3 -59 10 -70 16 -25 13 -55 49 -56 65 0 6 -6
13 -12 15 -10 4 -10 10 0 32 6 15 12 36 12 46 0 11 3 20 8 20 4 0 32 22 61 49
33 30 60 47 70 44 12 -3 11 0 -3 11 -11 9 -25 16 -30 17 -6 0 12 9 39 20 61
24 75 42 75 90 0 51 -53 121 -98 130 -17 3 -29 2 -26 -2 3 -5 13 -9 23 -9 9 0
30 -14 47 -31 29 -31 29 -31 4 -24 -14 4 -34 16 -46 26 -27 25 -119 27 -128 3
-7 -18 -50 -14 -111 12 l-36 15 21 27 c28 34 50 88 49 116 0 18 -2 17 -11 -6
-5 -16 -14 -28 -19 -28 -5 0 -9 -11 -9 -24 0 -13 -7 -26 -15 -30 -8 -3 -15
-12 -15 -20 0 -19 -40 -57 -52 -50 -5 3 -7 2 -6 -3 2 -4 -1 -9 -7 -10 -21 -6
-10 23 21 54 31 31 52 90 58 161 1 17 5 35 9 38 4 4 7 11 7 16 0 5 -7 3 -15
-6 -8 -8 -15 -32 -15 -53 0 -60 -17 -106 -55 -147 -20 -22 -38 -36 -41 -33 -3
3 0 24 6 47 11 40 7 87 -11 120 -4 8 -17 36 -29 63 -21 45 -30 51 -58 40z m26
-28 c-3 -3 -9 2 -12 12 -6 14 -5 15 5 6 7 -7 10 -15 7 -18z m12 -45 c0 -5 -2
-10 -4 -10 -3 0 -8 5 -11 10 -3 6 -1 10 4 10 6 0 11 -4 11 -10z m-60 -85 c0
-5 -5 -3 -10 5 -5 8 -10 20 -10 25 0 6 5 3 10 -5 5 -8 10 -19 10 -25z m115
-157 c-1 -18 -7 -34 -14 -36 -7 -2 -9 3 -5 13 4 9 2 15 -4 13 -5 -2 -10 2 -10
7 0 6 4 9 9 7 5 -1 12 5 15 13 9 23 12 18 9 -17z m-131 -18 c-5 -5 -10 3 -11
18 -1 22 0 24 9 8 6 -10 6 -22 2 -26z m80 -19 c19 9 19 9 4 -4 -10 -8 -14 -18
-10 -23 4 -4 0 -3 -9 4 -9 6 -18 10 -21 7 -2 -3 -5 2 -5 10 0 10 4 12 10 6 7
-7 17 -7 31 0z m-84 -5 c0 -2 -7 -9 -15 -16 -13 -11 -14 -10 -9 4 5 14 24 23
24 12z m60 -35 c0 -5 -7 -12 -16 -15 -14 -5 -15 -4 -4 9 14 17 20 19 20 6z
m-101 -25 c9 -11 9 -16 -1 -22 -7 -4 -10 -4 -6 1 4 4 3 14 -3 22 -6 7 -9 13
-6 13 2 0 10 -6 16 -14z m-56 -51 c-3 -9 -8 -14 -10 -11 -3 3 -2 9 2 15 9 16
15 13 8 -4z m-788 -45 c3 -5 1 -10 -4 -10 -6 0 -11 5 -11 10 0 6 2 10 4 10 3
0 8 -4 11 -10z m-35 -40 c0 -5 -2 -10 -4 -10 -3 0 -8 5 -11 10 -3 6 -1 10 4
10 6 0 11 -4 11 -10z m65 -39 c-6 -5 -25 10 -25 20 0 5 6 4 14 -3 8 -7 12 -15
11 -17z m181 -18 c-6 -6 -36 9 -36 18 0 5 9 4 20 -3 10 -7 18 -14 16 -15z m35
4 c-10 -9 -11 -8 -5 6 3 10 9 15 12 12 3 -3 0 -11 -7 -18z m194 11 c5 4 5 1 1
-6 -6 -10 -11 -10 -22 -1 -8 6 -14 14 -14 16 0 3 6 0 13 -6 8 -6 18 -7 22 -3z
m-355 -48 c0 -5 -5 -10 -11 -10 -5 0 -7 5 -4 10 3 6 8 10 11 10 2 0 4 -4 4
-10z m282 -19 c43 -16 43 -31 2 -31 -59 0 -111 -60 -66 -77 9 -4 23 -13 30
-20 19 -18 -6 -18 -27 1 -26 22 -93 55 -136 66 -46 12 -82 36 -71 47 4 5 30
-4 57 -20 27 -15 49 -23 49 -18 0 5 -9 13 -20 16 -11 3 -20 11 -20 16 0 6 3 8
8 5 4 -2 18 2 32 10 23 13 21 14 -30 9 -40 -3 -48 -2 -30 4 30 11 187 6 222
-8z m-527 -34 c21 -16 13 -37 -14 -37 -25 0 -57 36 -39 43 22 9 33 8 53 -6z
m2095 -263 c0 -8 -19 -13 -24 -6 -3 5 1 9 9 9 8 0 15 -2 15 -3z m19 -81 c-14
-17 -31 1 -22 24 4 10 9 11 19 2 11 -9 12 -15 3 -26z m-79 7 c12 -7 12 -13 1
-34 -16 -29 -41 -24 -41 8 0 35 13 43 40 26z m59 -129 c-1 -52 -10 -74 -47
-117 -30 -34 -34 -36 -48 -22 -19 19 -11 89 12 112 8 8 14 21 14 28 0 8 9 24
21 37 27 29 49 12 48 -38z m-1957 -86 c51 -18 148 -105 148 -133 0 -10 3 -22
7 -26 16 -15 33 -85 33 -134 0 -29 7 -66 15 -81 13 -27 13 -31 -8 -53 -25 -27
-47 -26 -47 2 0 14 -12 23 -42 31 -43 12 -118 77 -118 102 0 7 -14 30 -32 51
-21 26 -27 40 -19 45 8 6 6 19 -8 52 -27 58 -26 66 6 74 26 6 26 8 10 19 -24
18 -22 66 3 66 3 0 27 -7 52 -15z m-379 -2 c-7 -2 -21 -2 -30 0 -10 3 -4 5 12
5 17 0 24 -2 18 -5z m1603 -116 c3 -3 1 -8 -5 -12 -6 -3 -11 -1 -11 5 0 6 -11
8 -25 6 -14 -3 -23 -1 -20 4 5 9 52 7 61 -3z m14 -91 c0 -28 -12 -46 -31 -46
-22 0 -23 1 -7 35 12 27 38 34 38 11z m-100 -51 c0 -26 -14 -33 -25 -15 -9 14
1 40 15 40 5 0 10 -11 10 -25z m148 8 c-2 -9 -8 -18 -15 -20 -7 -3 -9 3 -6 16
6 25 26 28 21 4z m-24 -79 c22 -8 21 -63 -1 -94 -23 -33 -80 -90 -90 -90 -29
1 -47 48 -32 87 14 39 71 103 90 103 9 0 24 -3 33 -6z"/>
<path d="M1686 784 c-8 -21 -8 -24 5 -24 11 0 39 24 39 34 0 13 -38 5 -44 -10z"/>
<path d="M875 2280 c3 -5 10 -10 16 -10 5 0 9 5 9 10 0 6 -7 10 -16 10 -8 0
-12 -4 -9 -10z"/>
<path d="M1678 2265 c-46 -17 -98 -63 -98 -87 0 -27 31 -23 91 13 28 16 65 33
80 36 16 3 29 9 29 14 0 5 10 9 23 9 20 0 20 1 -7 15 -34 18 -69 18 -118 0z
m2 -39 c0 -3 -4 -8 -10 -11 -5 -3 -10 -1 -10 4 0 6 5 11 10 11 6 0 10 -2 10
-4z"/>
<path d="M580 2267 c0 -21 32 -73 52 -86 22 -13 22 -13 7 5 -9 10 -26 35 -38
54 -11 19 -21 31 -21 27z"/>
<path d="M2180 2253 c-8 -3 -17 -9 -20 -13 -3 -3 -24 -17 -47 -30 -30 -16 -43
-30 -43 -45 0 -31 -9 -36 -34 -20 -30 20 -56 4 -33 -20 10 -9 17 -29 17 -45 0
-40 17 -46 48 -19 15 13 37 30 49 37 28 15 179 16 188 2 4 -6 7 -41 7 -78 0
-55 1 -62 10 -42 9 24 8 59 -8 207 -6 55 -5 61 12 65 11 2 -15 4 -56 5 -41 1
-82 -1 -90 -4z"/>
<path d="M664 2151 c3 -5 -3 -30 -15 -55 -23 -53 -19 -67 19 -65 24 2 24 2 5
6 -29 6 -30 37 -4 77 20 29 19 46 0 46 -6 0 -8 -4 -5 -9z"/>
<path d="M1455 2100 c-3 -5 -2 -10 4 -10 5 0 13 5 16 10 3 6 2 10 -4 10 -5 0
-13 -4 -16 -10z"/>
<path d="M1410 2075 c-19 -22 -8 -25 13 -3 9 10 13 18 8 18 -5 0 -14 -7 -21
-15z"/>
<path d="M2887 2075 c-49 -17 -57 -25 -26 -25 14 0 30 5 35 10 6 6 37 14 70
19 l59 9 -50 0 c-27 1 -67 -5 -88 -13z"/>
<path d="M715 2030 c3 -5 13 -10 21 -10 8 0 14 5 14 10 0 6 -9 10 -21 10 -11
0 -17 -4 -14 -10z"/>
<path d="M1321 1966 c-24 -26 -21 -47 7 -45 11 0 12 3 5 6 -21 8 -15 27 15 45
17 11 21 18 11 18 -8 0 -26 -11 -38 -24z"/>
<path d="M890 1935 c-6 -8 -10 -19 -8 -26 2 -6 9 0 16 15 13 29 10 33 -8 11z"/>
<path d="M1332 1896 c-12 -18 -22 -42 -22 -55 0 -27 17 -61 31 -61 6 0 3 7 -5
16 -22 22 -20 66 5 98 12 15 20 29 17 31 -2 2 -13 -11 -26 -29z"/>
<path d="M523 1880 c-63 -41 -80 -57 -69 -68 4 -3 26 13 49 36 24 23 48 42 54
42 6 0 16 7 23 15 19 23 10 19 -57 -25z"/>
<path d="M2218 1894 c-5 -4 -8 -15 -8 -25 0 -9 -6 -19 -12 -22 -7 -2 -10 -8
-5 -13 12 -13 39 21 35 46 -1 12 -6 18 -10 14z"/>
<path d="M911 1872 c-7 -13 -11 -26 -8 -28 8 -8 29 25 25 38 -3 8 -9 4 -17
-10z"/>
<path d="M1026 1859 c-8 -42 0 -50 9 -9 4 17 5 34 2 36 -2 3 -7 -10 -11 -27z"/>
<path d="M2140 1881 c0 -5 9 -19 21 -32 11 -13 18 -17 15 -9 -3 8 -9 23 -12
33 -7 18 -24 24 -24 8z"/>
<path d="M891 1796 c-7 -8 -8 -17 -3 -20 6 -3 13 1 16 10 9 23 2 28 -13 10z"/>
<path d="M438 1780 c6 -8 12 -22 12 -31 0 -10 4 -20 9 -23 15 -10 -1 43 -18
56 -13 10 -14 10 -3 -2z"/>
<path d="M1326 1743 c-8 -21 18 -43 50 -43 13 0 26 -4 29 -10 3 -5 13 -10 21
-10 31 0 2 18 -46 30 -27 7 -50 16 -50 21 0 5 5 9 10 9 6 0 10 5 10 10 0 16
-17 11 -24 -7z"/>
<path d="M3210 1690 c19 -16 39 -30 44 -30 5 0 -8 14 -29 30 -49 39 -61 39
-15 0z"/>
<path d="M1038 1663 c7 -3 16 -2 19 1 4 3 -2 6 -13 5 -11 0 -14 -3 -6 -6z"/>
<path d="M3270 1656 c0 -2 7 -7 16 -10 8 -3 12 -2 9 4 -6 10 -25 14 -25 6z"/>
<path d="M1098 1633 c6 -2 18 -2 25 0 6 3 1 5 -13 5 -14 0 -19 -2 -12 -5z"/>
<path d="M2525 1630 c-3 -5 1 -10 10 -10 9 0 13 5 10 10 -3 6 -8 10 -10 10 -2
0 -7 -4 -10 -10z"/>
<path d="M2580 1630 c0 -5 5 -10 11 -10 5 0 7 5 4 10 -3 6 -8 10 -11 10 -2 0
-4 -4 -4 -10z"/>
<path d="M2229 1600 c-9 -9 -23 -20 -30 -22 -15 -5 17 -53 85 -128 36 -40 40
-42 70 -32 l31 11 -30 -5 c-27 -4 -34 0 -63 41 -17 25 -36 45 -42 45 -5 0 -10
6 -10 14 0 7 -7 19 -15 26 -17 14 -20 30 -5 30 6 0 20 9 32 20 15 14 17 20 7
19 -8 0 -21 -9 -30 -19z"/>
<path d="M2615 1571 c-3 -5 -1 -12 5 -16 5 -3 10 1 10 9 0 18 -6 21 -15 7z"/>
<path d="M3372 1568 c3 -7 13 -15 23 -17 17 -3 17 -2 3 13 -20 19 -31 21 -26
4z"/>
<path d="M514 1562 c3 -5 34 -19 68 -32 35 -12 70 -25 78 -28 8 -3 20 -4 27
-3 6 1 14 -3 18 -9 8 -12 25 -13 25 -1 0 5 -14 12 -31 16 -17 4 -54 17 -83 30
-61 27 -110 39 -102 27z"/>
<path d="M2535 1491 c-44 -16 -96 -36 -115 -45 l-35 -16 30 4 c32 4 99 29 175
64 65 29 38 26 -55 -7z"/>
<path d="M2885 1491 c9 -19 11 -32 5 -36 -15 -9 -12 -22 6 -29 14 -5 15 -4 5
8 -9 11 -8 15 6 20 11 4 13 10 7 14 -17 11 -24 40 -11 46 7 2 2 5 -11 5 -22 1
-22 0 -7 -28z"/>
<path d="M3430 1512 c0 -15 28 -47 35 -40 4 3 -3 16 -14 27 -12 12 -21 17 -21
13z"/>
<path d="M2740 1490 c-55 -19 -55 -19 -12 -14 23 3 50 7 60 9 25 4 43 -15 37
-36 -4 -11 -2 -19 4 -19 14 0 14 21 1 54 -11 30 -17 31 -90 6z"/>
<path d="M436 1475 c-9 -26 -7 -32 5 -12 6 10 9 21 6 23 -2 3 -7 -2 -11 -11z"/>
<path d="M3190 1460 c0 -5 20 -10 44 -10 25 0 47 -4 50 -9 3 -5 31 -12 61 -16
37 -4 59 -13 68 -26 8 -10 17 -16 20 -12 4 3 -1 15 -10 26 -18 20 -17 20 12
13 29 -7 29 -7 10 8 -24 18 -45 20 -45 5 0 -12 -21 -10 -115 15 -71 18 -95 20
-95 6z"/>
<path d="M416 1423 c-6 -14 -5 -15 5 -6 7 7 10 15 7 18 -3 3 -9 -2 -12 -12z"/>
<path d="M2768 1423 c6 -2 18 -2 25 0 6 3 1 5 -13 5 -14 0 -19 -2 -12 -5z"/>
<path d="M3697 1371 c15 -28 29 -48 31 -46 4 4 -48 95 -55 95 -2 0 8 -22 24
-49z"/>
<path d="M2430 1390 c-19 -11 -31 -19 -27 -20 11 0 67 29 67 35 0 7 -1 7 -40
-15z"/>
<path d="M2609 1355 c5 -11 21 -33 35 -50 19 -22 24 -25 20 -10 -6 20 -5 20
10 1 23 -29 19 -6 -5 29 -19 28 -20 28 -14 5 6 -23 4 -22 -25 10 -17 19 -27
26 -21 15z"/>
<path d="M2690 1344 c11 -29 40 -73 40 -61 0 11 -39 87 -45 87 -2 0 0 -12 5
-26z"/>
<path d="M3264 1362 c-15 -10 -44 -55 -44 -67 0 -7 3 -7 8 0 4 6 27 25 51 43
40 28 42 32 20 32 -13 0 -29 -4 -35 -8z"/>
<path d="M375 1350 c-3 -5 -1 -10 4 -10 6 0 11 5 11 10 0 6 -2 10 -4 10 -3 0
-8 -4 -11 -10z"/>
<path d="M2345 1350 c-3 -6 1 -7 9 -4 18 7 21 14 7 14 -6 0 -13 -4 -16 -10z"/>
<path d="M2496 1336 c-52 -26 -78 -46 -59 -46 6 0 16 6 22 13 6 8 29 20 51 27
23 7 43 17 46 22 8 13 -8 9 -60 -16z"/>
<path d="M362 1275 c0 -16 2 -22 5 -12 2 9 2 23 0 30 -3 6 -5 -1 -5 -18z"/>
<path d="M2850 1270 c-7 -17 -10 -33 -8 -36 3 -3 11 9 17 27 14 42 7 49 -9 9z"/>
<path d="M2264 1274 c30 -29 39 -56 25 -65 -11 -7 -11 -9 2 -9 9 0 24 11 33
25 14 21 14 24 1 19 -9 -4 -23 4 -36 20 -11 14 -25 26 -30 26 -6 0 -3 -7 5
-16z"/>
<path d="M618 1263 c7 -3 16 -2 19 1 4 3 -2 6 -13 5 -11 0 -14 -3 -6 -6z"/>
<path d="M2741 1260 c0 -8 4 -22 9 -30 12 -18 12 -2 0 25 -6 13 -9 15 -9 5z"/>
<path d="M2125 1230 c-59 -44 -133 -117 -187 -184 -53 -65 -55 -68 -33 -60 8
4 15 9 15 14 0 23 169 193 221 222 22 12 39 25 39 30 0 14 -14 8 -55 -22z"/>
<path d="M2190 1249 c0 -9 9 -24 20 -34 23 -21 17 -29 -55 -70 -49 -28 -114
-85 -97 -85 5 0 19 11 32 25 13 14 49 39 79 56 80 45 84 53 46 96 -17 20 -24
24 -25 12z"/>
<path d="M2240 1252 c0 -5 7 -15 15 -22 8 -7 15 -8 15 -2 0 5 -7 15 -15 22 -8
7 -15 8 -15 2z"/>
<path d="M2471 1236 c2 -2 15 -9 29 -15 24 -11 24 -11 6 3 -16 13 -49 24 -35
12z"/>
<path d="M3771 1220 c14 -31 19 -36 19 -24 0 6 -7 19 -16 30 -14 18 -14 18 -3
-6z"/>
<path d="M2938 1190 c-43 -38 -31 -39 17 0 21 17 33 30 27 30 -7 0 -26 -13
-44 -30z"/>
<path d="M2535 1200 c3 -5 8 -10 11 -10 2 0 4 5 4 10 0 6 -5 10 -11 10 -5 0
-7 -4 -4 -10z"/>
<path d="M3173 1183 c-26 -71 -33 -102 -32 -134 l1 -34 9 40 c6 22 16 64 24
94 16 59 14 79 -2 34z"/>
<path d="M2726 1170 c8 -31 24 -50 24 -29 0 8 -7 24 -16 35 -14 18 -15 18 -8
-6z"/>
<path d="M2577 1169 c7 -7 15 -10 18 -7 3 3 -2 9 -12 12 -14 6 -15 5 -6 -5z"/>
<path d="M1844 1115 c-3 -14 -10 -22 -15 -19 -16 10 -9 -24 13 -61 17 -31 19
-38 7 -46 -10 -6 -10 -9 -1 -9 6 0 12 -7 12 -15 0 -8 5 -15 10 -15 14 0 12 17
-4 65 -9 24 -12 57 -9 83 6 46 -3 58 -13 17z"/>
<path d="M2461 1126 c2 -2 24 -6 49 -10 31 -4 40 -3 30 4 -13 9 -89 15 -79 6z"/>
<path d="M1035 1110 c3 -5 10 -10 16 -10 5 0 9 5 9 10 0 6 -7 10 -16 10 -8 0
-12 -4 -9 -10z"/>
<path d="M2685 1093 c8 -18 18 -33 20 -33 10 0 4 16 -16 40 l-20 25 16 -32z"/>
<path d="M1935 1100 c3 -5 10 -10 16 -10 5 0 9 5 9 10 0 6 -7 10 -16 10 -8 0
-12 -4 -9 -10z"/>
<path d="M2630 1085 c0 -2 10 -10 23 -16 20 -11 21 -11 8 4 -13 16 -31 23 -31
12z"/>
<path d="M1908 1063 c7 -3 16 -2 19 1 4 3 -2 6 -13 5 -11 0 -14 -3 -6 -6z"/>
<path d="M3695 1039 c4 -13 12 -25 16 -27 5 -2 9 -14 9 -27 0 -13 5 -27 10
-30 14 -8 12 13 -4 60 -15 43 -44 65 -31 24z"/>
<path d="M3821 1044 c0 -11 3 -14 6 -6 3 7 2 16 -1 19 -3 4 -6 -2 -5 -13z"/>
<path d="M375 1040 c3 -5 16 -10 28 -10 18 0 19 2 7 10 -20 13 -43 13 -35 0z"/>
<path d="M421 994 c0 -11 3 -14 6 -6 3 7 2 16 -1 19 -3 4 -6 -2 -5 -13z"/>
<path d="M3831 994 c0 -11 3 -14 6 -6 3 7 2 16 -1 19 -3 4 -6 -2 -5 -13z"/>
<path d="M131 960 c-1 -48 18 -154 42 -235 8 -27 18 -66 21 -85 4 -19 17 -61
30 -93 l24 -57 -42 -20 c-34 -16 -21 -18 20 -3 18 7 43 -24 55 -69 6 -23 22
-64 36 -90 14 -27 26 -63 28 -80 1 -17 10 -35 20 -41 24 -13 64 -59 65 -73 0
-5 8 -19 18 -30 9 -11 25 -33 34 -49 l17 -30 166 -3 c184 -3 181 -4 94 55 -56
37 -100 74 -156 130 -24 24 -47 43 -53 43 -5 0 -10 3 -10 8 0 4 -19 28 -43 54
-62 68 -107 125 -107 137 0 6 -9 16 -20 23 -11 7 -20 19 -20 26 0 7 -13 32
-29 55 -16 24 -36 59 -45 80 -8 21 -25 50 -36 64 -18 23 -77 196 -99 288 l-9
40 -1 -45z"/>
<path d="M3656 965 c-17 -13 -18 -15 -3 -15 9 0 17 4 17 9 0 5 8 12 18 14 12
3 13 5 2 6 -8 0 -24 -6 -34 -14z"/>
<path d="M3845 945 c19 -84 17 -197 -5 -312 -21 -110 -73 -253 -92 -253 -4 0
-8 -10 -8 -22 0 -20 2 -19 20 10 11 17 24 32 29 32 11 0 20 28 50 155 37 157
44 228 32 311 -6 42 -16 84 -22 93 -8 12 -9 9 -4 -14z"/>
<path d="M2605 925 c-38 -12 -83 -27 -98 -33 -16 -7 -31 -12 -34 -12 -2 0 -16
-9 -30 -20 -14 -11 -21 -20 -16 -20 5 0 18 7 29 15 10 8 37 19 59 25 22 6 56
17 75 25 19 8 58 21 85 28 29 9 40 15 25 15 -14 0 -56 -10 -95 -23z"/>
<path d="M922 919 c-39 -11 -50 -32 -29 -54 20 -19 55 -19 100 0 90 37 30 83
-71 54z m38 -19 c0 -5 -4 -10 -9 -10 -6 0 -13 5 -16 10 -3 6 1 10 9 10 9 0 16
-4 16 -10z"/>
<path d="M2052 880 c0 -14 2 -19 5 -12 2 6 2 18 0 25 -3 6 -5 1 -5 -13z"/>
<path d="M412 860 c0 -19 2 -27 5 -17 2 9 2 25 0 35 -3 9 -5 1 -5 -18z"/>
<path d="M2488 834 c-16 -8 -28 -20 -28 -26 0 -6 -11 -25 -24 -42 -13 -17 -26
-42 -30 -56 -6 -19 -3 -17 14 10 13 19 26 37 31 38 5 2 9 10 9 19 0 8 14 28
31 44 35 33 35 34 -3 13z"/>
<path d="M422 790 c0 -19 2 -27 5 -17 2 9 2 25 0 35 -3 9 -5 1 -5 -18z"/>
<path d="M1940 817 c0 -11 21 -51 30 -57 9 -6 50 -95 50 -109 0 -5 10 -18 23
-28 12 -10 35 -35 50 -55 15 -21 34 -38 41 -38 8 0 21 -11 29 -24 9 -13 25
-26 36 -29 26 -6 28 9 3 17 -24 8 -152 140 -152 158 0 3 -6 13 -13 20 -7 7
-23 33 -36 58 -24 48 -60 100 -61 87z"/>
<path d="M2171 802 c-17 -31 -13 -40 5 -14 9 13 14 26 11 29 -3 2 -10 -4 -16
-15z"/>
<path d="M3726 781 c-4 -24 -5 -46 -2 -48 7 -7 19 63 14 79 -3 7 -8 -7 -12
-31z"/>
<path d="M583 744 c-3 -9 0 -20 8 -25 27 -17 36 -8 23 25 -8 21 -23 20 -31 0z"/>
<path d="M1240 751 c0 -5 9 -11 20 -14 13 -3 20 0 20 9 0 8 -9 14 -20 14 -11
0 -20 -4 -20 -9z"/>
<path d="M2132 712 c-21 -47 -40 -112 -30 -102 10 9 60 141 56 146 -3 2 -14
-17 -26 -44z"/>
<path d="M3711 708 c0 -9 -4 -25 -7 -35 -5 -14 -4 -15 5 -7 7 7 11 22 8 35 -2
13 -5 16 -6 7z"/>
<path d="M460 690 c6 -11 13 -20 16 -20 2 0 0 9 -6 20 -6 11 -13 20 -16 20 -2
0 0 -9 6 -20z"/>
<path d="M838 687 c-16 -6 -28 -17 -28 -24 0 -18 27 -16 34 2 3 8 12 15 21 15
8 0 15 5 15 10 0 12 -6 11 -42 -3z"/>
<path d="M3283 644 c-9 -24 9 -47 43 -56 64 -17 86 19 32 52 -40 24 -67 25
-75 4z m73 -19 c15 -11 16 -14 3 -15 -8 0 -24 7 -35 15 -15 11 -16 14 -3 15 8
0 24 -7 35 -15z"/>
<path d="M2169 633 c-13 -16 -12 -17 4 -4 16 13 21 21 13 21 -2 0 -10 -8 -17
-17z"/>
<path d="M665 630 c3 -5 10 -10 16 -10 5 0 9 5 9 10 0 6 -7 10 -16 10 -8 0
-12 -4 -9 -10z"/>
<path d="M1510 611 c25 -4 35 -11 34 -23 -2 -22 12 -23 32 -4 19 19 6 26 -53
30 -37 3 -40 2 -13 -3z"/>
<path d="M1390 600 c-8 -5 -26 -10 -40 -10 -14 0 -34 -7 -44 -15 -19 -14 -19
-15 7 -15 26 0 107 34 107 45 0 8 -14 5 -30 -5z"/>
<path d="M2137 603 c-4 -3 -7 -11 -7 -17 0 -6 5 -5 12 2 6 6 9 14 7 17 -3 3
-9 2 -12 -2z"/>
<path d="M552 565 c6 -14 15 -25 20 -25 5 0 1 11 -8 25 -9 14 -18 25 -20 25
-2 0 2 -11 8 -25z"/>
<path d="M1170 553 c-37 -40 -60 -79 -60 -101 0 -13 -11 -24 -32 -32 -75 -27
-87 -43 -67 -88 8 -18 16 -32 19 -32 3 0 23 -16 45 -35 30 -26 49 -34 75 -34
35 1 35 1 7 9 -16 5 -43 20 -62 34 -19 14 -38 26 -44 26 -6 0 -11 7 -11 15 0
8 -4 15 -10 15 -5 0 -10 10 -10 23 0 19 11 28 55 46 38 16 55 29 55 41 0 27
26 83 49 104 13 12 35 18 61 18 22 0 40 3 40 9 0 5 -19 9 -43 9 -33 0 -47 -6
-67 -27z"/>
<path d="M1421 558 c-25 -12 -39 -24 -32 -26 6 -2 23 3 36 12 13 9 31 16 40
16 8 0 15 5 15 10 0 14 -9 12 -59 -12z"/>
<path d="M1580 546 c0 -11 9 -16 26 -16 31 0 28 23 -4 28 -15 2 -22 -2 -22
-12z"/>
<path d="M1406 481 c2 -43 34 -104 34 -65 0 11 -5 25 -12 32 -8 8 -8 15 2 27
10 12 10 18 0 30 -20 24 -26 18 -24 -24z"/>
<path d="M1230 500 c-44 -7 -46 -14 -2 -10 12 1 22 -1 22 -5 0 -3 -10 -10 -22
-15 -23 -9 -23 -9 2 -9 14 -1 39 10 55 24 33 27 30 28 -55 15z"/>
<path d="M2247 469 c12 -12 115 -40 121 -34 3 3 -1 6 -9 8 -8 3 -38 12 -68 20
-30 9 -50 12 -44 6z"/>
<path d="M1292 444 c-19 -16 -32 -34 -31 -47 0 -12 3 -16 6 -9 2 6 13 12 24
12 10 0 24 9 31 20 12 19 13 19 26 -3 13 -22 13 -22 6 3 -12 46 -26 52 -62 24z"/>
<path d="M113 428 c-13 -6 -23 -15 -23 -20 0 -10 36 7 45 22 7 12 7 12 -22 -2z"/>
<path d="M1603 397 c-18 -12 -33 -26 -33 -31 0 -6 5 -5 12 2 7 7 20 12 29 12
9 0 19 9 22 20 3 11 4 20 4 19 -1 0 -17 -10 -34 -22z"/>
<path d="M3110 405 c0 -22 28 -75 40 -75 13 0 40 30 40 45 0 15 -43 45 -65 45
-8 0 -15 -7 -15 -15z m60 -35 c0 -5 -2 -10 -4 -10 -3 0 -8 5 -11 10 -3 6 -1
10 4 10 6 0 11 -4 11 -10z"/>
<path d="M37 373 c-20 -14 -37 -31 -37 -36 0 -6 15 2 32 19 18 16 37 32 43 36
23 19 -4 5 -38 -19z"/>
<path d="M1430 349 c0 -42 -12 -50 -67 -44 l-38 5 40 -14 c52 -17 85 -4 85 33
0 14 -5 33 -10 41 -7 11 -10 6 -10 -21z"/>
<path d="M1737 328 c-24 -8 -28 -15 -25 -42 3 -27 7 -31 32 -31 24 0 31 5 38
30 8 31 4 56 -9 54 -4 0 -21 -5 -36 -11z"/>
<path d="M3290 332 c0 -13 23 -32 38 -32 7 0 10 4 7 10 -9 14 -45 32 -45 22z"/>
<path d="M3530 325 c-17 -21 -5 -31 15 -12 8 9 15 18 15 21 0 11 -18 6 -30 -9z"/>
<path d="M76 309 c-75 -20 -102 -35 -46 -26 96 16 137 25 160 35 24 10 24 11
-10 10 -19 0 -66 -9 -104 -19z"/>
<path d="M3702 290 c-51 -74 -123 -160 -189 -227 l-62 -63 78 0 77 0 32 45
c17 25 27 47 21 50 -5 4 -7 11 -3 16 3 5 9 7 14 4 4 -3 6 3 3 13 -5 20 44 164
59 173 6 4 8 13 6 20 -3 8 -17 -4 -36 -31z"/>
<path d="M2269 302 c7 -13 10 -35 6 -49 -4 -16 -2 -22 5 -18 16 10 12 61 -7
76 -15 13 -15 12 -4 -9z"/>
<path d="M782 294 c10 -10 20 -15 24 -12 3 4 -5 12 -18 18 -22 12 -22 12 -6
-6z"/>
<path d="M1303 280 c1 -11 5 -20 9 -20 3 0 6 9 5 20 -1 11 -5 20 -9 20 -3 0
-6 -9 -5 -20z"/>
<path d="M1874 286 c-6 -7 -15 -22 -18 -34 -4 -12 -11 -22 -15 -22 -5 0 -20
-18 -35 -40 -14 -22 -23 -40 -19 -40 9 0 73 75 73 85 0 4 9 20 21 36 20 29 15
40 -7 15z"/>
<path d="M3415 187 c-55 -56 -122 -116 -149 -132 -27 -17 -59 -36 -70 -42 -12
-7 -16 -13 -10 -13 24 0 183 111 226 159 142 153 144 171 3 28z"/>
<path d="M1902 258 c-26 -26 -7 -59 31 -57 7 0 2 4 -11 9 -20 8 -21 13 -12 31
14 24 9 34 -8 17z"/>
<path d="M2990 246 c0 -30 20 -47 52 -44 30 3 27 28 -3 28 -10 0 -19 6 -19 14
0 8 -7 16 -15 20 -11 4 -15 -1 -15 -18z"/>
<path d="M1355 242 c-49 -27 -87 -60 -83 -72 2 -6 20 5 41 24 21 19 47 38 58
41 10 4 19 11 19 16 0 11 2 11 -35 -9z"/>
<path d="M1230 240 c-45 -7 -44 -7 18 -8 36 -1 62 2 62 8 0 11 -11 11 -80 0z"/>
<path d="M860 220 c0 -5 4 -10 9 -10 5 0 16 -6 23 -13 22 -21 68 -48 67 -40 0
12 -99 74 -99 63z"/>
<path d="M30 210 l-35 -7 30 -3 c45 -3 90 0 122 10 23 7 18 8 -27 8 -30 0 -71
-4 -90 -8z"/>
<path d="M3716 205 c-9 -26 -7 -32 5 -12 6 10 9 21 6 23 -2 3 -7 -2 -11 -11z"/>
<path d="M20 170 c-8 -5 -12 -12 -9 -15 4 -3 12 1 19 10 14 17 11 19 -10 5z"/>
<path d="M970 147 c0 -3 12 -12 26 -22 15 -9 23 -12 20 -6 -7 11 -46 35 -46
28z"/>
<path d="M3130 102 c0 -15 18 -34 29 -31 7 3 3 11 -9 21 -11 10 -20 14 -20 10z"/>
<path d="M2595 60 c3 -5 8 -10 11 -10 2 0 4 5 4 10 0 6 -5 10 -11 10 -5 0 -7
-4 -4 -10z"/>
<path d="M1220 45 c0 -6 76 -45 87 -45 10 0 -45 34 -69 43 -10 3 -18 4 -18 2z"/>
<path d="M2616 25 c-3 -9 0 -15 9 -15 9 0 12 6 9 15 -4 8 -7 15 -9 15 -2 0 -5
-7 -9 -15z"/>
</g>
</svg>
